<svg xmlns="http://www.w3.org/2000/svg" xml:space="preserve" width="634px" height="99px" version="1.1" style="shape-rendering:geometricPrecision; text-rendering:geometricPrecision; image-rendering:optimizeQuality; fill-rule:evenodd; clip-rule:evenodd"
viewBox="0 0 367.95 57.5">
  <path fill="black" d="M26.87 16.25c-2.39,0 -4.61,-0.4 -6.63,-1.19 -2.7,-1.06 -4.05,-2.58 -4.05,-4.59 0,-3.21 3.51,-5.88 10.53,-8 5.45,-1.65 10.36,-2.47 14.7,-2.47 4.34,0 6.51,1.43 6.51,4.29 0,1.59 -1.57,3.13 -4.7,4.6 -2.77,1.3 -5.07,1.96 -6.92,1.96 -1.15,0 -1.73,-0.48 -1.73,-1.45 0,-0.61 0.48,-1.23 1.44,-1.88 0.88,-0.61 1.65,-0.91 2.29,-0.91 0.38,0 0.57,0.15 0.57,0.43 0,0.13 -0.26,0.33 -0.76,0.62 -0.59,0.28 -0.93,0.48 -1.04,0.6 0.17,0.14 0.4,0.21 0.7,0.21 0.99,0 2.64,-0.56 4.94,-1.69 2.51,-1.23 3.76,-2.25 3.76,-3.08 0,-0.76 -1.38,-1.15 -4.11,-1.15 -3.07,0 -6.71,0.54 -10.92,1.63 -2.8,0.73 -5.38,1.58 -7.74,2.55 -3.82,1.6 -5.72,3.09 -5.72,4.47 0,1.66 2.64,2.84 7.91,3.52 3.02,0.39 6.39,0.6 10.1,0.6 0.76,0 1.13,0.28 1.13,0.84 0,1.02 -1.21,1.59 -3.65,1.71 -7.43,0.34 -14.5,2.07 -21.23,5.2 -6.89,3.2 -10.34,6.41 -10.34,9.61 0,3.12 2.67,4.69 8.02,4.69 3.19,0 6.29,-0.72 9.29,-2.16 2.03,-0.97 4.03,-2.29 6.01,-3.98 1.7,-1.44 2.57,-2.16 2.61,-2.16 0.44,0 0.65,0.53 0.65,1.59 0,1.76 -1.94,3.77 -5.84,6.03 -3.89,2.27 -7.83,3.4 -11.79,3.4 -7.24,0 -10.86,-2.88 -10.86,-8.64 0,-3.74 2.57,-6.99 7.71,-9.73 3.44,-1.84 7.69,-3.3 12.73,-4.4 1.41,-0.36 3.56,-0.72 6.43,-1.07zm15.97 14.55c5.19,-4.4 8.84,-6.6 10.94,-6.6 1.34,0 2.01,0.62 2.01,1.89 0,1.11 -1.51,3.13 -4.53,6.05 -3.01,2.92 -4.52,4.68 -4.52,5.28 0,0.6 0.33,0.93 0.98,0.98 0.66,0.05 0.99,0.21 0.99,0.49 0,0.38 -0.69,0.57 -2.05,0.57 -1.58,0 -2.36,-0.7 -2.36,-2.1 0,-1.17 0.75,-2.66 2.27,-4.45 0.79,-0.93 2.19,-2.36 4.22,-4.29 1.52,-1.44 2.27,-2.31 2.27,-2.61 0,-0.24 -0.17,-0.36 -0.51,-0.36 -1.07,0 -3.42,1.44 -7.03,4.31 -3.01,2.39 -5.23,4.34 -6.69,5.88 -1.86,1.94 -2.98,2.92 -3.38,2.92 -0.3,0 -0.57,-0.15 -0.82,-0.44 -0.24,-0.3 -0.37,-0.6 -0.37,-0.92 0,-0.44 1.31,-2.19 3.91,-5.26l4.67 -5.54 -7.25 5.9 -5.37 4.12c-2.72,1.85 -4.81,2.78 -6.27,2.78 -0.24,0 -0.36,-0.12 -0.36,-0.35 0,-0.35 0.26,-0.58 0.79,-0.7 0.71,-0.13 1.56,-0.41 2.52,-0.85 1.39,-0.6 4.2,-2.62 8.45,-6.05 3.82,-3.1 6.57,-5.47 8.25,-7.11 0.28,-0.28 0.73,-0.62 1.34,-1.02 0.3,-0.11 0.62,-0.17 0.97,-0.17 0.31,0 0.63,0.11 0.97,0.33 0.33,0.21 0.49,0.47 0.49,0.77 0,0.34 -1.5,2.53 -4.53,6.55zm31.3 -12.7c-0.88,0 -1.32,-0.46 -1.32,-1.39 0,-0.79 0.46,-1.5 1.38,-2.11 0.83,-0.57 1.65,-0.85 2.49,-0.85 0.97,0 1.47,0.54 1.47,1.63 0,0.75 -0.5,1.42 -1.47,1.98 -0.86,0.49 -1.72,0.74 -2.55,0.74zm-13.83 20.43c0.86,-0.08 1.59,-0.12 2.21,-0.12 0.25,0 0.38,0.16 0.38,0.47 0,0.34 -0.48,0.54 -1.42,0.58l-1.93 0.08c-1.7,2.02 -5.11,5.75 -10.21,11.17 -3.21,3.41 -5.33,5.11 -6.35,5.11 -0.96,0 -1.45,-0.57 -1.45,-1.7 0,-2.29 1.41,-5.07 4.2,-8.37 2.81,-3.3 6.48,-5.59 11.03,-6.87 3.59,-3.96 7.06,-8.15 10.39,-12.59 -2.79,2.47 -5.57,4.81 -8.33,7.02 -5.06,4.06 -8.58,6.09 -10.56,6.09 -0.23,0 -0.34,-0.12 -0.34,-0.36 0,-0.36 0.26,-0.59 0.79,-0.69 0.66,-0.11 1.54,-0.42 2.64,-0.93 1.21,-0.57 3.58,-2.27 7.11,-5.1 3.42,-2.77 6.05,-5.03 7.88,-6.77 1.74,-1.67 2.91,-2.52 3.52,-2.52 0.99,0 1.5,0.38 1.5,1.14 0,0.67 -0.47,1.56 -1.4,2.68l-9.66 11.68zm-4.4 1.68c-3.88,1.21 -7.07,3.3 -9.57,6.27 -2.5,2.97 -3.75,5.32 -3.75,7.07 0,0.47 0.16,0.7 0.48,0.7 0.72,0 5,-4.68 12.84,-14.04zm19.02 -8.38l-5.83 4.44c-2.99,2.08 -5.22,3.13 -6.7,3.13 -0.22,0 -0.34,-0.12 -0.34,-0.36 0,-0.38 0.2,-0.61 0.58,-0.69 1.15,-0.2 2.12,-0.53 2.94,-0.98 1.41,-0.78 3.72,-2.42 6.91,-4.94l7.47 -6.12c1.44,-1.25 2.32,-1.88 2.64,-1.88 0.46,0 0.98,0.26 1.54,0.78 1.09,-0.83 2.07,-1.25 2.92,-1.25 1.29,0 1.93,0.69 1.93,2.07 0,2.05 -1.65,4.86 -4.92,8.4 -3.34,3.58 -6.04,5.37 -8.1,5.37 -1.92,0 -2.88,-1 -2.88,-3.02 0,-1.06 0.61,-2.71 1.84,-4.95zm9.59 0.07c0.7,-0.66 1.39,-1.55 2.09,-2.7 0.77,-1.3 1.16,-2.34 1.16,-3.12 0,-0.71 -0.31,-1.07 -0.93,-1.07 -0.93,0 -1.85,0.58 -2.78,1.74 -0.93,1.17 -1.4,2.22 -1.4,3.17 0,1.05 0.62,1.72 1.86,1.98zm-2.77 -3.56c-3.84,3.38 -5.76,6.13 -5.76,8.24 0,0.91 0.44,1.37 1.3,1.37 1.41,0 3.61,-1.71 6.61,-5.14 -1.59,-0.38 -2.4,-1.4 -2.4,-3.07 0,-0.44 0.09,-0.9 0.25,-1.4zm23.19 10.13l1.8 -0.06c0.25,0 0.38,0.16 0.38,0.47 0,0.34 -0.45,0.56 -1.33,0.63l-1.78 0.09 -7.91 9.79c-4.73,5.4 -8.09,8.11 -10.08,8.11 -0.94,0 -1.41,-0.64 -1.41,-1.91 0,-2.82 1.85,-6.08 5.56,-9.78 3.71,-3.71 7.53,-6 11.46,-6.89l5.87 -7.51 -4.65 4.13c-2.83,2.34 -4.76,3.51 -5.78,3.51 -1.19,0 -1.79,-0.84 -1.79,-2.52 0,-1.46 0.69,-3.16 2.07,-5.12l3.45 -4.35c-2.22,1.98 -4.78,4.12 -7.66,6.42 -2.36,1.87 -3.96,3.07 -4.79,3.63 -2.28,1.52 -4.13,2.29 -5.55,2.29 -0.22,0 -0.34,-0.13 -0.34,-0.39 0,-0.34 0.19,-0.56 0.57,-0.66 2.38,-0.58 5.66,-2.58 9.85,-6l4.96 -4.06 3.2 -2.83c1.79,-1.54 2.8,-2.31 3.02,-2.31 0.5,0 0.96,0.17 1.4,0.49 0.45,0.33 0.67,0.74 0.67,1.21l-4.47 5.19c-2.97,3.53 -4.46,5.88 -4.46,7.05 0,0.33 0.19,0.51 0.57,0.51 1.13,0 3.89,-2.1 8.29,-6.29 3.23,-3.07 5.92,-5.82 8.05,-8.24 0.44,-0.49 0.75,-0.73 0.94,-0.73 0.36,0 0.73,0.12 1.12,0.38 0.39,0.26 0.58,0.55 0.58,0.89 0,0.19 -0.12,0.41 -0.37,0.67 -3.48,3.76 -7.29,8.49 -11.44,14.19zm-4.31 1.7c-3.8,1.23 -7.24,3.47 -10.34,6.74 -3.09,3.27 -4.64,5.96 -4.64,8.06 0,0.64 0.22,0.96 0.68,0.96 1.82,0 6.58,-5.26 14.3,-15.76zm31.87 -22.18c-0.9,0 -1.35,-0.47 -1.35,-1.4 0,-0.78 0.46,-1.48 1.38,-2.1 0.83,-0.57 1.66,-0.85 2.49,-0.85 0.97,0 1.47,0.54 1.47,1.62 0,0.77 -0.5,1.44 -1.47,1.98 -0.84,0.5 -1.68,0.75 -2.52,0.75zm-12.49 19.66c0,0.51 0.55,0.76 1.66,0.76 0.24,0 0.37,0.16 0.37,0.47 0,0.38 -0.63,0.58 -1.88,0.58 -1.42,0 -2.12,-0.69 -2.12,-2.05 0,-1.59 2.1,-4.92 6.3,-9.98l-7.73 6.34c-4.58,3.75 -7.9,5.63 -9.96,5.63 -0.22,0 -0.33,-0.13 -0.33,-0.39 0,-0.36 0.19,-0.58 0.57,-0.66 1.19,-0.22 2.27,-0.61 3.25,-1.16 1.22,-0.67 3.84,-2.6 7.82,-5.75l8.66 -7.27c0.38,-0.14 0.89,-0.21 1.53,-0.21 0.65,0 0.97,0.37 0.97,1.11 0,0.79 -1.52,2.93 -4.56,6.42 -3.03,3.48 -4.55,5.53 -4.55,6.16zm20.49 -6.85c5.19,-4.4 8.84,-6.6 10.94,-6.6 1.34,0 2.01,0.62 2.01,1.89 0,1.11 -1.51,3.13 -4.53,6.05 -3.01,2.92 -4.52,4.68 -4.52,5.28 0,0.6 0.33,0.93 0.98,0.98 0.66,0.05 0.99,0.21 0.99,0.49 0,0.38 -0.69,0.57 -2.05,0.57 -1.58,0 -2.36,-0.7 -2.36,-2.1 0,-1.17 0.76,-2.66 2.27,-4.45 0.79,-0.93 2.19,-2.36 4.22,-4.29 1.52,-1.44 2.27,-2.31 2.27,-2.61 0,-0.24 -0.17,-0.36 -0.51,-0.36 -1.07,0 -3.42,1.44 -7.03,4.31 -3.01,2.39 -5.23,4.34 -6.69,5.88 -1.86,1.94 -2.98,2.92 -3.38,2.92 -0.3,0 -0.57,-0.15 -0.82,-0.44 -0.24,-0.3 -0.37,-0.6 -0.37,-0.92 0,-0.44 1.31,-2.19 3.91,-5.26l4.67 -5.54 -7.25 5.9 -5.37 4.12c-2.72,1.85 -4.8,2.78 -6.27,2.78 -0.24,0 -0.36,-0.12 -0.36,-0.35 0,-0.35 0.26,-0.58 0.79,-0.7 0.72,-0.13 1.56,-0.41 2.52,-0.85 1.39,-0.6 4.2,-2.62 8.46,-6.05 3.82,-3.1 6.56,-5.47 8.25,-7.11 0.28,-0.28 0.72,-0.62 1.33,-1.02 0.3,-0.11 0.62,-0.17 0.97,-0.17 0.32,0 0.63,0.11 0.97,0.33 0.33,0.21 0.5,0.47 0.5,0.77 0,0.34 -1.51,2.53 -4.54,6.55zm16.38 2.22c-2.66,2.07 -4.37,3.36 -5.12,3.85 -2.5,1.69 -4.43,2.53 -5.8,2.53 -0.25,0 -0.37,-0.12 -0.37,-0.36 0,-0.34 0.22,-0.57 0.67,-0.69 2.01,-0.47 4.49,-1.85 7.45,-4.15l7.93 -6.29c3.81,-2.79 6.69,-4.18 8.64,-4.18 1.6,0 2.38,0.9 2.35,2.69 0.89,-1.02 1.52,-1.53 1.9,-1.53 0.55,0 0.82,0.31 0.82,0.94 0,0.58 -3.17,4.81 -9.52,12.68 0.11,0 0.34,-0.01 0.67,-0.05 0.28,-0.03 0.49,-0.05 0.64,-0.05 0.25,0 0.38,0.16 0.38,0.47 0,0.34 -0.38,0.56 -1.12,0.63l-1.51 0.08c-9.2,11.4 -15.97,17.1 -20.29,17.1 -1.78,0 -2.67,-0.75 -2.67,-2.24 0,-2.37 1.77,-5.18 5.31,-8.39 3.53,-3.22 8.46,-5.58 14.78,-7.07 1.62,-1.81 2.93,-3.46 3.93,-4.95 -1.93,1.67 -3.15,2.71 -3.66,3.08 -1.69,1.25 -3.13,1.87 -4.31,1.87 -1.38,0 -2.06,-0.83 -2.06,-2.49 0,-1.06 0.31,-2.22 0.96,-3.48zm14.7 -7c0,-0.67 -0.31,-1.01 -0.94,-1.01 -1.21,0 -3.54,1.64 -6.99,4.93 -3.45,3.29 -5.18,5.59 -5.18,6.89 0,0.48 0.18,0.71 0.54,0.71 1.05,0 3.39,-1.59 7,-4.75 3.71,-3.26 5.57,-5.52 5.57,-6.77zm-10.58 14.36c-4.2,1.02 -8.27,3.13 -12.16,6.35 -3.91,3.21 -5.86,5.74 -5.86,7.61 0,0.79 0.35,1.19 1.04,1.19 1.59,0 4.54,-2.11 8.86,-6.34 3.22,-3.14 5.93,-6.08 8.12,-8.81zm41.82 -15.45c0.98,-0.73 1.95,-1.08 2.92,-1.08 0.82,0 1.52,0.3 2.08,0.91 0.55,0.6 0.83,1.33 0.83,2.18 0,2.42 -1.35,5.07 -4.05,7.94 -2.75,2.93 -5.32,4.4 -7.72,4.4 -2.29,0 -3.43,-1.18 -3.43,-3.55 0,-1.25 0.54,-2.99 1.61,-5.21 -2.93,2.62 -4.99,4.38 -6.18,5.27 -3.16,2.41 -5.62,3.61 -7.38,3.61 -0.22,0 -0.32,-0.12 -0.3,-0.36 0,-0.36 0.25,-0.59 0.74,-0.69 1.92,-0.39 4.52,-1.89 7.81,-4.49 3.65,-2.89 7.12,-6.38 10.42,-10.46 4.94,-6.13 9.19,-10.67 12.7,-13.62 3.69,-3.08 6.14,-4.62 7.34,-4.62 1.19,0 1.78,0.58 1.78,1.75 0,1.29 -1.2,3.28 -3.59,6 -2.04,2.3 -5.82,5.21 -11.35,8.73 -0.77,0.46 -1.89,1.16 -3.37,2.13 -0.23,0.16 -0.52,0.55 -0.86,1.16zm18.01 -17.8c0,-0.23 -0.09,-0.34 -0.28,-0.34 -0.87,0 -3.44,2.21 -7.72,6.63 -3.47,3.57 -5.97,6.31 -7.48,8.19 7.48,-4.59 12.26,-8.62 14.38,-12.1 0.74,-1.19 1.1,-1.99 1.1,-2.38zm-17.08 24.62c1.79,-2.16 2.69,-3.93 2.69,-5.29 0,-0.97 -0.39,-1.45 -1.2,-1.45 -0.92,0 -1.78,0.45 -2.56,1.35 -0.78,0.9 -1.17,1.82 -1.17,2.77 0,1.29 0.75,2.16 2.24,2.62zm-0.66 0.88c-1.75,-0.74 -2.62,-1.9 -2.62,-3.46 0,-0.59 0.2,-1.33 0.6,-2.2 -3.88,4.91 -5.82,8.2 -5.82,9.86 0,0.79 0.36,1.17 1.11,1.17 1.76,0 4,-1.78 6.73,-5.37zm21.62 1.44c-3.3,3.2 -5.71,4.81 -7.26,4.81 -1.17,0 -1.76,-0.65 -1.76,-1.96 0,-1.53 0.68,-3.24 2.04,-5.14l3.64 -4.31 -8.08 6.71c-4.56,3.48 -7.77,5.22 -9.62,5.22 -0.22,0 -0.34,-0.13 -0.34,-0.38 0,-0.33 0.27,-0.55 0.82,-0.67 0.7,-0.13 1.52,-0.41 2.46,-0.85 1.1,-0.5 3.4,-2.14 6.93,-4.91 1.63,-1.27 4.01,-3.25 7.16,-5.94 0.53,-0.55 1.38,-1.29 2.55,-2.23 0.47,-0.3 0.9,-0.46 1.3,-0.46 1.09,0 1.64,0.36 1.64,1.08 0,0.73 -1.32,2.56 -3.97,5.48 -2.65,2.92 -3.98,5.01 -3.98,6.25 0,0.32 0.18,0.48 0.51,0.48 1.14,0 3.66,-2.16 7.57,-6.47 3.91,-4.31 6.13,-6.47 6.66,-6.47 0.26,0 0.52,0.14 0.77,0.41 0.26,0.27 0.39,0.55 0.39,0.83 0,0.45 -1.45,2.36 -4.35,5.71 -2.9,3.36 -4.35,5.51 -4.35,6.45 0,0.43 0.32,0.65 0.95,0.67 0.64,0.02 0.96,0.19 0.96,0.5 0,0.38 -0.47,0.58 -1.43,0.58 -1.6,0 -2.4,-0.61 -2.4,-1.82 0,-0.87 0.4,-2.06 1.19,-3.57zm11.13 0.44c-3.92,3.26 -6.9,4.89 -8.94,4.89 -0.23,0 -0.34,-0.12 -0.34,-0.36 0,-0.36 0.19,-0.59 0.57,-0.69 0.7,-0.17 1.77,-0.55 3.23,-1.13 1.35,-0.73 4.81,-3.41 10.37,-8.03 5.27,-4.38 7.96,-6.56 8.1,-6.56 0.43,0 0.86,0.18 1.29,0.56 0.42,0.38 0.63,0.78 0.63,1.22 0,1.38 -1.07,3.8 -3.23,7.27 -1.87,3 -3.51,5.24 -4.9,6.73 0.86,0 1.29,0.16 1.29,0.47 0,0.38 -0.41,0.58 -1.22,0.58 -0.21,0 -0.52,-0.03 -0.94,-0.09 -0.42,-0.06 -0.73,-0.09 -0.95,-0.09 -0.15,0 -0.37,0.02 -0.67,0.06 -0.31,0.04 -0.54,0.06 -0.69,0.06 -2.4,0 -3.6,-1.63 -3.6,-4.89zm4.5 2.5c1.32,-1.09 2.78,-2.99 4.37,-5.68 1.47,-2.49 2.49,-4.7 3.08,-6.61l-10.14 8.24c0.71,0.11 1.29,0.66 1.76,1.65l0.93 2.4zm-0.82 0.88l-0.8 -2.24c-0.41,-1.1 -0.82,-1.65 -1.21,-1.65 -0.42,0 -0.62,0.32 -0.62,0.97 0,0.64 0.19,1.3 0.57,1.99 0.43,0.77 0.93,1.16 1.52,1.16 0.23,0 0.41,-0.08 0.54,-0.23zm29.74 -19.9c-0.9,0 -1.35,-0.47 -1.35,-1.4 0,-0.78 0.46,-1.48 1.38,-2.1 0.83,-0.57 1.66,-0.85 2.49,-0.85 0.97,0 1.47,0.54 1.47,1.62 0,0.77 -0.5,1.44 -1.47,1.98 -0.84,0.5 -1.69,0.75 -2.52,0.75zm-12.49 19.66c0,0.51 0.55,0.76 1.66,0.76 0.24,0 0.37,0.16 0.37,0.47 0,0.38 -0.63,0.58 -1.88,0.58 -1.42,0 -2.12,-0.69 -2.12,-2.05 0,-1.59 2.09,-4.92 6.3,-9.98l-7.74 6.34c-4.57,3.75 -7.89,5.63 -9.95,5.63 -0.22,0 -0.33,-0.13 -0.33,-0.39 0,-0.36 0.19,-0.58 0.57,-0.66 1.19,-0.22 2.27,-0.61 3.25,-1.16 1.22,-0.67 3.83,-2.6 7.82,-5.75l8.66 -7.27c0.38,-0.14 0.89,-0.21 1.53,-0.21 0.65,0 0.97,0.37 0.97,1.11 0,0.79 -1.52,2.93 -4.56,6.42 -3.03,3.48 -4.55,5.53 -4.55,6.16zm20.49 -6.85c5.19,-4.4 8.84,-6.6 10.94,-6.6 1.34,0 2.01,0.62 2.01,1.89 0,1.11 -1.51,3.13 -4.53,6.05 -3.01,2.92 -4.52,4.68 -4.52,5.28 0,0.6 0.33,0.93 0.98,0.98 0.66,0.05 0.99,0.21 0.99,0.49 0,0.38 -0.69,0.57 -2.05,0.57 -1.58,0 -2.36,-0.7 -2.36,-2.1 0,-1.17 0.76,-2.66 2.27,-4.45 0.79,-0.93 2.19,-2.36 4.22,-4.29 1.52,-1.44 2.27,-2.31 2.27,-2.61 0,-0.24 -0.17,-0.36 -0.51,-0.36 -1.07,0 -3.42,1.44 -7.03,4.31 -3.01,2.39 -5.23,4.34 -6.69,5.88 -1.86,1.94 -2.98,2.92 -3.38,2.92 -0.3,0 -0.57,-0.15 -0.82,-0.44 -0.24,-0.3 -0.37,-0.6 -0.37,-0.92 0,-0.44 1.31,-2.19 3.91,-5.26l4.67 -5.54 -7.25 5.9 -5.37 4.12c-2.72,1.85 -4.81,2.78 -6.27,2.78 -0.24,0 -0.36,-0.12 -0.36,-0.35 0,-0.35 0.26,-0.58 0.79,-0.7 0.71,-0.13 1.56,-0.41 2.52,-0.85 1.39,-0.6 4.2,-2.62 8.46,-6.05 3.82,-3.1 6.56,-5.47 8.24,-7.11 0.28,-0.28 0.73,-0.62 1.34,-1.02 0.3,-0.11 0.62,-0.17 0.97,-0.17 0.31,0 0.63,0.11 0.97,0.33 0.33,0.21 0.5,0.47 0.5,0.77 0,0.34 -1.51,2.53 -4.54,6.55zm16.02 4.01c-0.94,0.23 -2.72,1.1 -5.34,2.6 -2.3,1.33 -4.06,1.99 -5.25,1.99 -0.23,0 -0.34,-0.13 -0.34,-0.39 0,-0.36 0.24,-0.58 0.73,-0.66 1.16,-0.18 2.79,-0.89 4.89,-2.11 2.31,-1.31 4.19,-2.13 5.65,-2.47 0.87,-2.1 2.67,-4.3 5.39,-6.62 2.9,-2.47 5.37,-3.71 7.41,-3.71 1.51,0 2.27,0.65 2.27,1.94 0,1.68 -1.61,3.52 -4.81,5.51 -2.34,1.48 -4.75,2.64 -7.21,3.47 -0.26,0.59 -0.4,1.21 -0.4,1.86 0,0.96 0.35,1.59 1.04,1.88 0.34,0.14 0.98,0.21 1.94,0.25 0.69,0.02 1.03,0.2 1.03,0.52 0,0.51 -1.17,0.76 -3.5,0.76 -2.47,0 -3.7,-1.06 -3.7,-3.2 0,-0.49 0.07,-1.03 0.2,-1.62zm3.73 -1.61c1.74,-0.85 3.58,-2.01 5.5,-3.47 2.57,-1.92 3.86,-3.44 3.86,-4.56 0,-0.45 -0.2,-0.68 -0.62,-0.68 -1.24,0 -2.91,1.14 -5.03,3.42 -1.89,2.07 -3.12,3.83 -3.71,5.29zm11.74 1.31c-3.93,3.26 -6.91,4.89 -8.95,4.89 -0.22,0 -0.34,-0.12 -0.34,-0.36 0,-0.36 0.2,-0.59 0.57,-0.69 0.7,-0.17 1.77,-0.55 3.23,-1.13 1.36,-0.73 4.82,-3.41 10.37,-8.03 5.27,-4.38 7.97,-6.56 8.1,-6.56 0.44,0 0.87,0.18 1.29,0.56 0.43,0.38 0.64,0.78 0.64,1.22 0,1.38 -1.07,3.8 -3.23,7.27 -1.88,3 -3.51,5.24 -4.9,6.73 0.86,0 1.28,0.16 1.28,0.47 0,0.38 -0.4,0.58 -1.22,0.58 -0.21,0 -0.52,-0.03 -0.93,-0.09 -0.42,-0.06 -0.74,-0.09 -0.95,-0.09 -0.16,0 -0.38,0.02 -0.68,0.06 -0.31,0.04 -0.53,0.06 -0.69,0.06 -2.39,0 -3.59,-1.63 -3.59,-4.89zm4.49 2.5c1.33,-1.09 2.79,-2.99 4.38,-5.68 1.47,-2.49 2.49,-4.7 3.08,-6.61l-10.14 8.24c0.7,0.11 1.28,0.66 1.76,1.65l0.92 2.4zm-0.82 0.88l-0.79 -2.24c-0.42,-1.1 -0.82,-1.65 -1.22,-1.65 -0.42,0 -0.62,0.32 -0.62,0.97 0,0.64 0.2,1.3 0.57,1.99 0.44,0.77 0.94,1.16 1.53,1.16 0.22,0 0.41,-0.08 0.53,-0.23zm12.84 -3.38c-3.92,3.26 -6.9,4.89 -8.94,4.89 -0.22,0 -0.34,-0.12 -0.34,-0.36 0,-0.36 0.19,-0.59 0.57,-0.69 0.7,-0.17 1.77,-0.55 3.23,-1.13 1.36,-0.73 4.82,-3.41 10.37,-8.03 5.27,-4.38 7.97,-6.56 8.1,-6.56 0.44,0 0.86,0.18 1.29,0.56 0.42,0.38 0.64,0.78 0.64,1.22 0,1.38 -1.08,3.8 -3.23,7.27 -1.88,3 -3.51,5.24 -4.91,6.73 0.86,0 1.29,0.16 1.29,0.47 0,0.38 -0.41,0.58 -1.22,0.58 -0.21,0 -0.52,-0.03 -0.94,-0.09 -0.41,-0.06 -0.73,-0.09 -0.94,-0.09 -0.16,0 -0.38,0.02 -0.68,0.06 -0.31,0.04 -0.53,0.06 -0.69,0.06 -2.4,0 -3.6,-1.63 -3.6,-4.89zm4.5 2.5c1.33,-1.09 2.79,-2.99 4.37,-5.68 1.47,-2.49 2.5,-4.7 3.09,-6.61l-10.15 8.24c0.71,0.11 1.29,0.66 1.76,1.65l0.93 2.4zm-0.82 0.88l-0.79 -2.24c-0.42,-1.1 -0.83,-1.65 -1.22,-1.65 -0.42,0 -0.62,0.32 -0.62,0.97 0,0.64 0.19,1.3 0.57,1.99 0.43,0.77 0.94,1.16 1.53,1.16 0.22,0 0.4,-0.08 0.53,-0.23zm16.34 -4.53c-0.39,0 -0.6,-0.26 -0.6,-0.79 0,-0.42 0.36,-1.13 1.08,-2.16 1.07,-1.52 4.54,-5.74 10.38,-12.64 6.58,-7.74 10.21,-11.62 10.93,-11.62 0.59,0 0.88,0.37 0.88,1.1 0,1.67 -7.35,10.26 -22.05,25.8 -0.19,0.21 -0.4,0.31 -0.62,0.31zm-3.99 6.33c-0.91,0 -1.37,-0.47 -1.37,-1.4 0,-0.77 0.37,-1.55 1.1,-2.35 0.73,-0.79 1.49,-1.18 2.27,-1.18 0.97,0 1.45,0.46 1.45,1.39 0,0.75 -0.39,1.53 -1.15,2.33 -0.77,0.8 -1.54,1.21 -2.3,1.21z"/>
</svg>
