<?xml version="1.0" standalone="no"?>
<!DOCTYPE svg PUBLIC "-//W3C//DTD SVG 20010904//EN"
 "http://www.w3.org/TR/2001/REC-SVG-20010904/DTD/svg10.dtd">
<svg version="1.0" xmlns="http://www.w3.org/2000/svg"
 width="731.000000pt" height="731.000000pt" viewBox="0 0 731.000000 731.000000"
 preserveAspectRatio="xMidYMid meet">
<metadata>
Created by potrace 1.14, written by Peter Selinger 2001-2017
</metadata>
<g transform="translate(0.000000,731.000000) scale(0.100000,-0.100000)"
fill="#000000" stroke="none">
<path d="M3967 6516 c-13 -29 -73 -128 -132 -221 -235 -372 -622 -930 -1640
-2365 -107 -151 -773 -1078 -1231 -1715 -99 -137 -218 -303 -265 -368 -160
-223 -284 -394 -314 -432 -16 -21 -55 -70 -86 -109 -89 -112 -165 -229 -208
-318 -40 -84 -81 -198 -81 -227 0 -15 243 -16 2705 -16 1488 0 2705 2 2705 5
0 3 -144 215 -319 470 -176 256 -364 530 -418 608 -54 79 -106 155 -116 168
l-18 24 -1194 0 c-1132 0 -1194 1 -1188 17 11 27 98 166 181 288 101 147 861
1205 945 1316 54 70 359 509 450 647 109 165 224 364 232 403 4 16 11 32 17
35 5 3 43 7 83 8 l73 1 27 -55 c49 -100 224 -373 452 -702 29 -43 79 -115 110
-160 75 -109 290 -413 428 -606 61 -84 117 -163 125 -175 18 -27 168 -236 576
-802 378 -524 421 -585 564 -800 255 -385 433 -591 564 -655 65 -32 73 -34
189 -34 l122 -1 1 689 1 689 -60 61 c-126 130 -355 448 -591 823 -40 62 -207
301 -292 418 -15 21 -163 229 -448 630 -98 138 -184 259 -192 270 -15 21 -90
126 -515 725 -135 190 -328 461 -430 604 -191 268 -249 349 -321 452 -70 99
-204 285 -245 338 -39 51 -94 85 -177 110 l-43 13 -26 -51z"/>
</g>
</svg>
